<svg class="icon" viewBox="0 0 1034 1024" xmlns="http://www.w3.org/2000/svg" width="201.953" height="200"><defs><style/></defs><path d="M984.25 347.741 571.81 20.876a96 96 0 0 0-119.272 0L40.122 347.74C14.988 367.663.186 398.988.186 432.268v486.074c0 58.275 44.59 105.542 99.584 105.542h275.48a20.596 20.596 0 0 0 20.596-20.597V686.383c0-19.27 15.616-34.886 34.886-34.886H616.96c19.27 0 34.886 15.616 34.886 34.886v316.904c0 11.38 9.216 20.597 20.596 20.597H924.65c54.993 0 99.584-47.244 99.584-105.542V432.244c-.047-33.256-14.872-64.581-39.983-84.503z" /></svg>